# xmcd
#
# Track frame offsets:
#	151
#	5415
#	28957
#	48667
#	66906
#	97377
#	119359
#	144797
#	155610
#	180994
#	196302
#
# Disc length: 2804 seconds
#
# Revision: 1
# Processed by: cddbd v1.5.2PL0 Copyright (c) Steve Scherf et al.
# Submitted via: audiograbber 1.83.01
#
DISCID=990af20b
DTITLE=Deadlock - Manifesto
DYEAR=2008
DGENRE=Death Metal
TTITLE0=The Moribund Choir vs. The Trumpets Of Armageddon
TTITLE1=Martyr To Science
TTITLE2=Slaughter's Palace
TTITLE3=The Brave - Agony Applause
TTITLE4=Deathrace
TTITLE5=Fire At Will
TTITLE6=Seal Slayer
TTITLE7=Manifesto
TTITLE8=Dying Breed
TTITLE9=Altruism
TTITLE10=Temple Of Love
EXTD=
EXTT0=
EXTT1=
EXTT2=
EXTT3=
EXTT4=
EXTT5=
EXTT6=
EXTT7=
EXTT8=
EXTT9=
EXTT10=
PLAYORDER=
